<svg width="18" height="24" viewBox="0 0 18 24" fill="none" xmlns="http://www.w3.org/2000/svg">
<path d="M8.99996 23.6666C6.86524 23.6666 5.12322 23.3409 3.77392 22.6895C2.42461 22.0381 1.74996 21.1971 1.74996 20.1666C1.74996 19.6999 1.89597 19.2673 2.18798 18.8687C2.47999 18.4701 2.88781 18.1249 3.41142 17.8333L5.31454 19.5541C5.13329 19.6319 4.93694 19.7194 4.72548 19.8166C4.51402 19.9138 4.34788 20.0305 4.22704 20.1666C4.48885 20.4777 5.09301 20.7499 6.03954 20.9833C6.98607 21.2166 7.97288 21.3333 8.99996 21.3333C10.027 21.3333 11.0189 21.2166 11.9755 20.9833C12.9321 20.7499 13.5413 20.4777 13.8031 20.1666C13.6621 20.011 13.4809 19.8846 13.2593 19.7874C13.0378 19.6902 12.8263 19.6027 12.625 19.5249L14.4979 17.7749C15.0618 18.086 15.4948 18.4409 15.7968 18.8395C16.0989 19.2381 16.25 19.6805 16.25 20.1666C16.25 21.1971 15.5753 22.0381 14.226 22.6895C12.8767 23.3409 11.1347 23.6666 8.99996 23.6666ZM9.03017 17.2499C11.0239 15.8305 12.5243 14.4062 13.5312 12.977C14.5382 11.5478 15.0416 10.1138 15.0416 8.67492C15.0416 6.69159 14.3871 5.19436 13.0781 4.18325C11.7691 3.17214 10.4097 2.66659 8.99996 2.66659C7.59024 2.66659 6.23086 3.17214 4.92183 4.18325C3.61281 5.19436 2.95829 6.69159 2.95829 8.67492C2.95829 9.9777 3.4517 11.3339 4.4385 12.7437C5.42531 14.1534 6.95586 15.6555 9.03017 17.2499ZM8.99996 20.1666C6.16038 18.1444 4.04076 16.1805 2.64111 14.2749C1.24145 12.3694 0.541626 10.5027 0.541626 8.67492C0.541626 7.29436 0.798397 6.08395 1.31194 5.04367C1.82548 4.00339 2.48503 3.13325 3.29058 2.43325C4.09614 1.73325 5.00239 1.20825 6.00933 0.858252C7.01628 0.508252 8.01315 0.333252 8.99996 0.333252C9.98676 0.333252 10.9836 0.508252 11.9906 0.858252C12.9975 1.20825 13.9038 1.73325 14.7093 2.43325C15.5149 3.13325 16.1744 4.00339 16.688 5.04367C17.2015 6.08395 17.4583 7.29436 17.4583 8.67492C17.4583 10.5027 16.7585 12.3694 15.3588 14.2749C13.9592 16.1805 11.8395 18.1444 8.99996 20.1666ZM8.99996 10.8333C9.66454 10.8333 10.2335 10.6048 10.7067 10.1478C11.18 9.69089 11.4166 9.14159 11.4166 8.49992C11.4166 7.85825 11.18 7.30895 10.7067 6.852C10.2335 6.39506 9.66454 6.16659 8.99996 6.16659C8.33538 6.16659 7.76645 6.39506 7.29319 6.852C6.81992 7.30895 6.58329 7.85825 6.58329 8.49992C6.58329 9.14159 6.81992 9.69089 7.29319 10.1478C7.76645 10.6048 8.33538 10.8333 8.99996 10.8333Z" fill="#E81215"/>
</svg>
