<svg width="50" height="51" viewBox="0 0 50 51" fill="none" xmlns="http://www.w3.org/2000/svg">
<mask id="mask0_1224_1127" style="mask-type:alpha" maskUnits="userSpaceOnUse" x="0" y="0" width="50" height="51">
<rect y="0.5" width="50" height="50" fill="#322F2F" fill-opacity="0.82"/>
</mask>
<g mask="url(#mask0_1224_1127)">
<path d="M8.33341 42.1666C7.18758 42.1666 6.20668 41.7586 5.39071 40.9426C4.57473 40.1267 4.16675 39.1458 4.16675 37.9999V12.9999C4.16675 11.8541 4.57473 10.8732 5.39071 10.0572C6.20668 9.24124 7.18758 8.83325 8.33341 8.83325H41.6667C42.8126 8.83325 43.7935 9.24124 44.6095 10.0572C45.4254 10.8732 45.8334 11.8541 45.8334 12.9999V25.4999H8.33341V37.9999H29.1667V42.1666H8.33341ZM8.33341 17.1666H41.6667V12.9999H8.33341V17.1666ZM39.5834 46.3333V40.0833H33.3334V35.9166H39.5834V29.6666H43.7501V35.9166H50.0001V40.0833H43.7501V46.3333H39.5834Z" fill="#322F2F" fill-opacity="0.82"/>
</g>
</svg>
