<svg width="50" height="51" viewBox="0 0 50 51" fill="none" xmlns="http://www.w3.org/2000/svg">
<mask id="mask0_1224_1124" style="mask-type:alpha" maskUnits="userSpaceOnUse" x="0" y="0" width="50" height="51">
<rect y="0.5" width="50" height="50" fill="#322F2F" fill-opacity="0.82"/>
</mask>
<g mask="url(#mask0_1224_1124)">
<path d="M8.33342 42.1667C7.18758 42.1667 6.20668 41.7588 5.39071 40.9428C4.57473 40.1268 4.16675 39.1459 4.16675 38.0001V13.0001C4.16675 11.8542 4.57473 10.8733 5.39071 10.0574C6.20668 9.2414 7.18758 8.83341 8.33342 8.83341H29.3751C29.2362 9.52786 29.1667 10.2223 29.1667 10.9167C29.1667 11.6112 29.2362 12.3056 29.3751 13.0001H8.33342L25.0001 23.4167L32.6043 18.6772C33.0904 19.1286 33.6199 19.5192 34.1928 19.849C34.7657 20.1789 35.3647 20.4654 35.9897 20.7084L25.0001 27.5834L8.33342 17.1667V38.0001H41.6668V21.1251C42.4654 20.9515 43.2119 20.7084 43.9063 20.3959C44.6008 20.0834 45.2431 19.7015 45.8334 19.2501V38.0001C45.8334 39.1459 45.4254 40.1268 44.6095 40.9428C43.7935 41.7588 42.8126 42.1667 41.6668 42.1667H8.33342ZM39.5834 17.1667C37.8473 17.1667 36.3716 16.5591 35.1563 15.3438C33.9411 14.1286 33.3334 12.6529 33.3334 10.9167C33.3334 9.18064 33.9411 7.70494 35.1563 6.48966C36.3716 5.27439 37.8473 4.66675 39.5834 4.66675C41.3195 4.66675 42.7952 5.27439 44.0105 6.48966C45.2258 7.70494 45.8334 9.18064 45.8334 10.9167C45.8334 12.6529 45.2258 14.1286 44.0105 15.3438C42.7952 16.5591 41.3195 17.1667 39.5834 17.1667Z" fill="#322F2F" fill-opacity="0.82"/>
</g>
</svg>
