<svg width="50" height="51" viewBox="0 0 50 51" fill="none" xmlns="http://www.w3.org/2000/svg">
  <g transform="translate(4.16667, 4.16667)">
    <path d="M4.33342 37.6665C3.18758 37.6665 2.20668 37.2585 1.39071 36.4425C0.574734 35.6266 0.166748 34.6457 0.166748 33.4998V8.49984C0.166748 7.354 0.574734 6.3731 1.39071 5.55713C2.20668 4.74116 3.18758 4.33317 4.33342 4.33317H25.3751C25.2362 5.02762 25.1667 5.72206 25.1667 6.4165C25.1667 7.11095 25.2362 7.80539 25.3751 8.49984H4.33342L21.0001 18.9165L28.6043 14.1769C29.0904 14.6283 29.6199 15.0189 30.1928 15.3488C30.7657 15.6787 31.3647 15.9651 31.9897 16.2082L21.0001 23.0832L4.33342 12.6665V33.4998H37.6668V16.6248C38.4654 16.4512 39.2119 16.2082 39.9063 15.8957C40.6008 15.5832 41.2431 15.2012 41.8334 14.7498V33.4998C41.8334 34.6457 41.4254 35.6266 40.6095 36.4425C39.7935 37.2585 38.8126 37.6665 37.6668 37.6665H4.33342ZM35.5834 12.6665C33.8473 12.6665 32.3716 12.0589 31.1563 10.8436C29.9411 9.62831 29.3334 8.15261 29.3334 6.4165C29.3334 4.68039 29.9411 3.2047 31.1563 1.98942C32.3716 0.774143 33.8473 0.166504 35.5834 0.166504C37.3195 0.166504 38.7952 0.774143 40.0105 1.98942C41.2258 3.2047 41.8334 4.68039 41.8334 6.4165C41.8334 8.15261 41.2258 9.62831 40.0105 10.8436C38.7952 12.0589 37.3195 12.6665 35.5834 12.6665Z" fill="white"/>
  </g>
</svg>
