<svg width="27" height="27" viewBox="0 0 27 27" fill="none" xmlns="http://www.w3.org/2000/svg">
<path d="M18.2129 12.75C19.6879 12.75 20.9443 13.2679 21.9951 14.3096C23.0457 15.3512 23.5674 16.5955 23.5674 18.0557C23.5674 18.5678 23.505 19.0494 23.3828 19.501C23.2607 19.9522 23.078 20.3756 22.834 20.7715L22.7295 20.9404L22.8701 21.0801L26.2637 24.4434L24.6572 26.0361L21.2607 22.6699L21.1221 22.5322L20.9551 22.6338C20.5555 22.8758 20.1284 23.0575 19.6729 23.1787C19.2168 23.3 18.7301 23.3613 18.2129 23.3613C16.7381 23.3613 15.4823 22.8432 14.4316 21.8018C13.381 20.7602 12.8594 19.5159 12.8594 18.0557C12.8594 16.5954 13.3809 15.3512 14.4316 14.3096C15.4823 13.268 16.7381 12.75 18.2129 12.75ZM6.92676 3.16504L2.72363 4.55469L2.55176 4.61133V21.6123L2.89062 21.4834L7.09375 19.8867L7.25488 19.8252V3.05664L6.92676 3.16504ZM18.2129 15.0273C17.357 15.0274 16.6273 15.3174 16.041 15.8984C15.4545 16.4799 15.1611 17.205 15.1611 18.0557C15.1612 18.9063 15.4545 19.6305 16.041 20.2119C16.6274 20.7932 17.3568 21.083 18.2129 21.083C19.059 21.083 19.7803 20.8348 20.3574 20.3262C20.9502 19.8037 21.2401 19.0333 21.2646 18.0615L21.2637 18.0605C21.2884 17.2068 21.0016 16.4789 20.4014 15.8965C19.8041 15.317 19.069 15.0273 18.2129 15.0273ZM15.6611 5.16895L15.4932 5.11133L9.88867 3.16699L9.55664 3.05176V21.3896L1.80176 24.3496L1.79883 24.3506C1.40948 24.5049 1.06883 24.462 0.743164 24.2246C0.409966 23.9817 0.25 23.6689 0.25 23.2637V3.81934C0.250021 3.57085 0.321035 3.35818 0.461914 3.17188C0.603796 2.98433 0.800048 2.83828 1.06055 2.7373L8.4043 0.263672L16.7305 3.15332L16.8164 3.18262L16.9014 3.15039L23.416 0.650391L23.4189 0.649414C23.8084 0.494972 24.1498 0.537942 24.4756 0.775391C24.8085 1.01823 24.9678 1.33124 24.9678 1.73633V12.6719C24.7172 12.362 24.4423 12.0695 24.1436 11.7949C23.6876 11.376 23.1942 11.0102 22.666 10.6934V3.3877L22.3271 3.5166L18.124 5.11328L17.9629 5.1748V9.47754C17.5455 9.48908 17.136 9.52798 16.7344 9.59766C16.3698 9.66091 16.012 9.74821 15.6611 9.85938V5.16895Z" fill="#58BB72" stroke="#D9D9D9" stroke-width="0.5"/>
</svg>
