<svg width="50" height="51" viewBox="0 0 50 51" fill="none" xmlns="http://www.w3.org/2000/svg">
  <mask id="mask0_1224_1133" style="mask-type:alpha" maskUnits="userSpaceOnUse" x="0" y="0" width="50" height="51">
    <rect y="0.5" width="50" height="50" fill="white"/>
  </mask>
  <g mask="url(#mask0_1224_1133)">
    <path d="M12.5 44.25V6.75H27.0833C30.5556 6.75 33.5069 7.96528 35.9375 10.3958C38.3681 12.8264 39.5833 15.7778 39.5833 19.25C39.5833 22.7222 38.3681 25.6736 35.9375 28.1042C33.5069 30.5347 30.5556 31.75 27.0833 31.75H20.8333V44.25H12.5ZM20.8333 23.4167H27.5C28.6458 23.4167 29.6267 23.0087 30.4427 22.1927C31.2587 21.3767 31.6667 20.3958 31.6667 19.25C31.6667 18.1042 31.2587 17.1233 30.4427 16.3073C29.6267 15.4913 28.6458 15.0833 27.5 15.0833H20.8333V23.4167Z" fill="white"/>
  </g>
</svg>
